<?xml version="1.0" encoding="UTF-8"?>
<svg xmlns="http://www.w3.org/2000/svg" xmlns:xlink="http://www.w3.org/1999/xlink" viewBox="0 0 133.87 128.54">
  <defs>
    <style>
      .cls-1 {
        fill: #fff;
      }

      .cls-2 {
        fill: #90d1f1;
      }

      .cls-3 {
        fill: #0180c5;
      }

      .cls-4 {
        fill: #ffc68d;
      }

      .cls-5 {
        isolation: isolate;
      }

      .cls-6 {
        mix-blend-mode: multiply;
      }

      .cls-6, .cls-7 {
        fill: #dfdfdf;
      }

      .cls-8 {
        fill: #fa9471;
      }

      .cls-9 {
        clip-path: url(#clippath);
      }

      .cls-10 {
        fill: none;
      }

      .cls-11 {
        fill: #27296b;
      }

      .cls-12 {
        fill: #f3af76;
      }
    </style>
    <clipPath id="clippath">
      <path class="cls-10" d="M39.48,125.96c0-43.2,12.95-78.22,28.91-78.22s28.91,35.02,28.91,78.22H39.48Z"/>
    </clipPath>
  </defs>
  <g class="cls-5">
    <g id="Capa_2" data-name="Capa 2">
      <g id="OBJECTS">
        <g>
          <path class="cls-3" d="M39.48,125.96c0-43.2,12.95-78.22,28.91-78.22s28.91,35.02,28.91,78.22H39.48Z"/>
          <g>
            <path class="cls-3" d="M62.2,110.92c-7.26-.1-22.55-1.05-25.9-9.26-2.23-5.47,3.46-11.78,6.34-15.85,4.7-6.65,8.5-14.21,13.45-20.61,5.33-6.88-4.28-16.65-9.67-9.67-6.16,7.96-11.07,16.99-16.91,25.24-5.15,7.28-9.02,15.53-6.41,24.53,4.48,15.4,25.55,19.13,39.1,19.31,8.83,.12,8.82-13.57,0-13.68Z"/>
            <path class="cls-12" d="M83.78,123.74c0-5.52-4.46-9.99-9.98-9.99s-9.98,4.47-9.98,9.99h19.95Z"/>
          </g>
          <g>
            <path class="cls-3" d="M74.21,110.92c7.27-.1,22.55-1.05,25.9-9.26,2.23-5.47-3.46-11.78-6.34-15.85-4.7-6.65-8.5-14.21-13.45-20.61-5.33-6.88,4.28-16.65,9.67-9.67,6.16,7.96,11.07,16.99,16.91,25.24,5.15,7.28,9.02,15.53,6.41,24.53-4.48,15.4-25.55,19.13-39.1,19.31-8.83,.12-8.82-13.57,0-13.68Z"/>
            <path class="cls-12" d="M52.63,123.74c0-5.52,4.47-9.99,9.98-9.99s9.98,4.47,9.98,9.99h-19.95Z"/>
          </g>
          <g class="cls-9">
            <path class="cls-8" d="M76.11,49.05c0,4.22-3.42,7.64-7.64,7.64s-7.64-3.42-7.64-7.64,3.42-7.64,7.64-7.64,7.64,3.42,7.64,7.64Z"/>
          </g>
          <g>
            <path class="cls-4" d="M82.33,29.14c.08-.06,.16-.12,.23-.18,2.55-2,6-2,7.57,0,1.57,2.01,.75,5.35-1.8,7.35-.08,.06-.15,.12-.23,.18-2.55,2-5.99,2-7.56,0-1.57-2.01-.76-5.35,1.79-7.35h0Z"/>
            <path class="cls-4" d="M52.84,29.14c-.08-.06-.16-.12-.23-.18-2.55-2-6-2-7.57,0-1.57,2.01-.75,5.35,1.8,7.35,.08,.06,.15,.12,.23,.18,2.55,2,5.99,2,7.57,0,1.57-2.01,.76-5.35-1.8-7.35h0Z"/>
            <g>
              <rect class="cls-8" x="63.17" y="39.44" width="9.84" height="13.69"/>
              <path class="cls-4" d="M50.83,27.27c0,10.42,7.72,18.86,17.25,18.86s17.25-8.44,17.25-18.86-7.72-18.86-17.25-18.86-17.25,8.44-17.25,18.86Z"/>
            </g>
            <path class="cls-1" d="M61.57,36.47c0,3.28,2.66,5.95,5.95,5.95s5.95-2.66,5.95-5.95h-11.9Z"/>
          </g>
          <polygon class="cls-7" points="38.81 123.78 30.3 91.78 104.07 91.78 93.72 123.78 38.81 123.78"/>
          <rect class="cls-2" y="122.66" width="133.87" height="5.88"/>
          <path class="cls-6" d="M73.85,108.26c0,2.58-3.08,4.67-6.88,4.67s-6.88-2.09-6.88-4.67,3.08-4.67,6.88-4.67,6.88,2.09,6.88,4.67Z"/>
          <path class="cls-11" d="M81.82,10.46C78.68,4.48,72.52,.32,65.8,0c-5.08-.24-10.48,4.26-9.27,9.64,1.28,5.64,8.24,11.48,13.38,13.42,.93,.35,1.89-.38,2.17-1.23,.17-.52,.24-1.05,.27-1.57,2.86,2.79,6.34,5.05,9.49,3.52,4.89-2.38,1.76-9.92-.03-13.32Z"/>
          <path class="cls-11" d="M53.38,26.07c.55-4.98,3.83-7.4,6.32-11.34,1.39-2.19,3.12-6.46-.6-7.49-4.11-1.13-7.37,3.82-8.73,6.93-1.6,3.66-2.2,7.94-1.77,11.9,.33,3.08,4.44,3.07,4.78,0h0Z"/>
          <path class="cls-11" d="M82.29,26.07c-.55-4.98-3.83-7.4-6.32-11.34-1.38-2.19-3.12-6.46,.6-7.49,4.12-1.13,7.37,3.82,8.73,6.93,1.6,3.66,2.19,7.94,1.77,11.9-.33,3.08-4.44,3.07-4.78,0h0Z"/>
        </g>
      </g>
    </g>
  </g>
</svg>